<?xml version="1.0" encoding="utf-8"?>
<!-- Generator: Adobe Illustrator 16.0.0, SVG Export Plug-In . SVG Version: 6.00 Build 0)  -->
<!DOCTYPE svg PUBLIC "-//W3C//DTD SVG 1.1//EN" "http://www.w3.org/Graphics/SVG/1.1/DTD/svg11.dtd">
<svg version="1.1" id="Layer_1" xmlns="http://www.w3.org/2000/svg" xmlns:xlink="http://www.w3.org/1999/xlink" x="0px" y="0px"
	 width="300px" height="247.345px" viewBox="0 0 300 247.345" enable-background="new 0 0 300 247.345" xml:space="preserve">
<path fill="none" stroke="#EE3165" stroke-width="2" stroke-miterlimit="10" d="M284.225,244.748H15.77
	c-5.937,0-10.797-4.856-10.797-10.796V16.486c0-5.939,4.86-10.797,10.797-10.797h268.455c5.938,0,10.796,4.858,10.796,10.797
	v217.466C295.021,239.892,290.163,244.748,284.225,244.748z"/>
<line fill="none" stroke="#EE3165" stroke-width="2" stroke-miterlimit="10" x1="6.523" y1="40.182" x2="295.021" y2="40.182"/>
<path fill="#EE3165" d="M28.514,23.058c0,3.002-2.433,5.435-5.435,5.435c-3.001,0-5.437-2.433-5.437-5.435
	c0-3.003,2.435-5.434,5.437-5.434C26.082,17.624,28.514,20.055,28.514,23.058"/>
<path fill="#EE3165" d="M45.87,23.058c0,3.002-2.435,5.435-5.434,5.435c-3.002,0-5.437-2.433-5.437-5.435
	c0-3.003,2.435-5.434,5.437-5.434C43.435,17.624,45.87,20.055,45.87,23.058"/>
<path fill="#EE3165" d="M62.913,23.058c0,3.002-2.432,5.435-5.435,5.435c-3.001,0-5.437-2.433-5.437-5.435
	c0-3.003,2.435-5.434,5.437-5.434C60.481,17.624,62.913,20.055,62.913,23.058"/>
<path fill="#EE3165" d="M196.7,172.048h-68.255c-5.001,0-9.089-4.091-9.089-9.09V89.686c0-4.999,4.088-9.089,9.089-9.089H196.7
	c4.998,0,9.089,4.091,9.089,9.089v73.272C205.789,167.957,201.698,172.048,196.7,172.048"/>
<path fill="#EE3165" d="M170.001,192.16h-68.254c-5.001,0-9.089-4.092-9.089-9.089v-73.273c0-4.998,4.088-9.09,9.089-9.09h68.254
	c4.999,0,9.09,4.092,9.09,9.09v73.273C179.091,188.068,175,192.16,170.001,192.16"/>
<path fill="none" stroke="#FFFFFF" stroke-width="2" stroke-miterlimit="10" d="M170.001,192.16h-68.254
	c-5.001,0-9.089-4.092-9.089-9.089v-73.273c0-4.998,4.088-9.09,9.089-9.09h68.254c4.999,0,9.09,4.092,9.09,9.09v73.273
	C179.091,188.068,175,192.16,170.001,192.16z"/>
</svg>
