<svg id="Layer_1" data-name="Layer 1" xmlns="http://www.w3.org/2000/svg" viewBox="0 0 123.16 119.82"><defs><style>.cls-1{fill:none;stroke:#ee3165;stroke-miterlimit:10;stroke-width:2px;}.cls-2{fill:#ee3165;}.cls-3,.cls-4{fill:#fff;}.cls-4{font-size:10px;font-family:Roboto-Bold, Roboto;font-weight:700;}</style></defs><title>Embded</title><rect class="cls-1" x="1" y="1" width="121.16" height="99.86" rx="4.51" ry="4.51"/><line class="cls-1" x1="1.65" y1="15.41" x2="122.16" y2="15.41"/><circle class="cls-2" cx="8.56" cy="8.26" r="2.27"/><circle class="cls-2" cx="15.81" cy="8.26" r="2.27"/><circle class="cls-2" cx="22.93" cy="8.26" r="2.27"/><path class="cls-2" d="M230.85,265.76l-13.67,13.5a3,3,0,0,0,0,4.24l14.67,13c2.88,2.55,7.14-1.68,4.24-4.24l-14.67-13v4.24L235.09,270c2.75-2.72-1.49-7-4.24-4.24Z" transform="translate(-190.62 -229.47)"/><path class="cls-2" d="M248.06,297.06l15.83-27.67c1.92-3.36-3.26-6.38-5.18-3L242.88,294c-1.92,3.36,3.26,6.38,5.18,3Z" transform="translate(-190.62 -229.47)"/><path class="cls-2" d="M271.1,270l13.67,13.5v-4.24l-14.67,13c-2.9,2.57,1.36,6.8,4.24,4.24l14.67-13a3,3,0,0,0,0-4.24l-13.67-13.5c-2.75-2.72-7,1.52-4.24,4.24Z" transform="translate(-190.62 -229.47)"/><rect class="cls-2" x="41.27" y="78.35" width="39.97" height="39.97" rx="19.98" ry="19.98"/><path class="cls-3" d="M251.87,346.28a18.48,18.48,0,1,1,18.46-19.17c.41,10.55-8.19,18.82-18.46,19.17-1.93.07-1.93,3.07,0,3,11.66-.4,21.48-9.54,21.48-21.48a21.48,21.48,0,1,0-21.48,21.48A1.5,1.5,0,0,0,251.87,346.28Z" transform="translate(-190.62 -229.47)"/><text class="cls-4" transform="translate(46.18 100.15)">Embed</text></svg>