<svg id="Layer_1" data-name="Layer 1" xmlns="http://www.w3.org/2000/svg" viewBox="0 0 123.16 120.53"><defs><style>.cls-1{fill:#ee3165;}.cls-2{fill:none;stroke:#ee3165;stroke-miterlimit:10;stroke-width:2px;}.cls-3,.cls-4{fill:#fff;}.cls-4{font-size:10px;font-family:Roboto-Bold, Roboto;font-weight:700;}.cls-5{letter-spacing:-0.01em;}</style></defs><title>page</title><path class="cls-1" d="M211.53,330.38V257a3.81,3.81,0,0,1,3.8-3.8H288a3.81,3.81,0,0,1,3.8,3.8v73.41" transform="translate(-190.07 -228.98)"/><rect class="cls-2" x="1" y="1" width="121.16" height="99.86" rx="4.51" ry="4.51"/><line class="cls-2" x1="1.65" y1="15.41" x2="122.16" y2="15.41"/><circle class="cls-1" cx="8.56" cy="8.26" r="2.27"/><circle class="cls-1" cx="15.81" cy="8.26" r="2.27"/><circle class="cls-1" cx="22.93" cy="8.26" r="2.27"/><rect class="cls-1" x="41.6" y="79.06" width="39.97" height="39.97" rx="19.98" ry="19.98"/><path class="cls-3" d="M251.65,346.51a18.48,18.48,0,1,1,18.46-19.17c.41,10.55-8.19,18.82-18.46,19.17-1.93.07-1.93,3.07,0,3,11.66-.4,21.48-9.54,21.48-21.48a21.48,21.48,0,1,0-21.48,21.48A1.5,1.5,0,0,0,251.65,346.51Z" transform="translate(-190.07 -228.98)"/><text class="cls-4" transform="translate(50.5 100.86)"><tspan class="cls-5">P</tspan><tspan x="6.4" y="0">age</tspan></text></svg>