<svg id="Layer_1" data-name="Layer 1" xmlns="http://www.w3.org/2000/svg" viewBox="0 0 183.17 120.53"><defs><style>.cls-1{fill:#ee3165;}.cls-2,.cls-5{fill:none;}.cls-2,.cls-5,.cls-6{stroke:#ee3165;stroke-miterlimit:10;}.cls-2,.cls-6{stroke-width:2px;}.cls-3,.cls-4{fill:#fff;}.cls-4{font-size:10px;font-family:Roboto-Bold, Roboto;font-weight:700;}.cls-6{fill:#fffefe;}</style></defs><title>Projector</title><rect class="cls-1" x="81.46" y="24.2" width="80.25" height="53" rx="3.8" ry="3.8"/><path class="cls-1" d="M261.39,268.22V255.1a3.81,3.81,0,0,1,3.8-3.8h72.66a3.81,3.81,0,0,1,3.8,3.8v13.12Z" transform="translate(-179.92 -167.35)"/><rect class="cls-2" x="61.01" y="1" width="121.16" height="99.86" rx="4.51" ry="4.51"/><line class="cls-2" x1="61.66" y1="15.41" x2="182.17" y2="15.41"/><circle class="cls-1" cx="68.57" cy="8.26" r="2.27"/><circle class="cls-1" cx="75.82" cy="8.26" r="2.27"/><circle class="cls-1" cx="82.94" cy="8.26" r="2.27"/><rect class="cls-1" x="101.61" y="79.06" width="39.97" height="39.97" rx="19.98" ry="19.98"/><path class="cls-3" d="M301.51,284.88A18.48,18.48,0,1,1,320,265.72c.41,10.55-8.19,18.82-18.46,19.17-1.93.07-1.93,3.07,0,3,11.66-.4,21.48-9.54,21.48-21.48a21.48,21.48,0,1,0-21.48,21.48A1.5,1.5,0,0,0,301.51,284.88Z" transform="translate(-179.92 -167.35)"/><text class="cls-4" transform="translate(107.51 100.86)">Slides</text><rect class="cls-2" x="249.59" y="246.38" width="6" height="17.13" rx="0.93" ry="0.93" transform="translate(325.26 342.53) rotate(-180)"/><rect class="cls-2" x="245.55" y="249.18" width="4.04" height="11.54" transform="translate(315.22 342.53) rotate(-180)"/><path class="cls-5" d="M217.51,251.17h-1.07" transform="translate(-179.92 -167.35)"/><path class="cls-2" d="M238,266.59v2.26a2.53,2.53,0,0,1-2.53,2.53H233.5a2.53,2.53,0,0,1-2.53-2.53v-2.26" transform="translate(-179.92 -167.35)"/><path class="cls-6" d="M240.07,241.67a3.2,3.2,0,0,1,2.78,1.61l2.7,4.72v12.41a6.18,6.18,0,0,1-6.18,6.18H187.1a6.18,6.18,0,0,1-6.18-6.18V247.85a6.18,6.18,0,0,1,6.18-6.18Z" transform="translate(-179.92 -167.35)"/><circle class="cls-2" cx="53.48" cy="87.46" r="3.69"/><path class="cls-2" d="M196.1,266.59v2.26a2.53,2.53,0,0,1-2.53,2.53h-1.93a2.53,2.53,0,0,1-2.53-2.53v-2.26" transform="translate(-179.92 -167.35)"/><line class="cls-5" x1="9.18" y1="90.09" x2="13.32" y2="90.09"/><line class="cls-5" x1="9.18" y1="88.1" x2="13.32" y2="88.1"/><line class="cls-5" x1="9.18" y1="86.11" x2="13.32" y2="86.11"/><line class="cls-5" x1="9.18" y1="84.12" x2="13.32" y2="84.12"/><line class="cls-5" x1="15.36" y1="90.09" x2="19.5" y2="90.09"/><line class="cls-5" x1="15.36" y1="88.1" x2="19.5" y2="88.1"/><line class="cls-5" x1="15.36" y1="86.11" x2="19.5" y2="86.11"/><line class="cls-5" x1="15.36" y1="84.12" x2="19.5" y2="84.12"/><line class="cls-5" x1="21.55" y1="90.09" x2="25.69" y2="90.09"/><line class="cls-5" x1="21.55" y1="88.1" x2="25.69" y2="88.1"/><line class="cls-5" x1="21.55" y1="86.11" x2="25.69" y2="86.11"/><line class="cls-5" x1="21.55" y1="84.12" x2="25.69" y2="84.12"/><line class="cls-5" x1="27.73" y1="90.09" x2="31.87" y2="90.09"/><line class="cls-5" x1="27.73" y1="88.1" x2="31.87" y2="88.1"/><line class="cls-5" x1="27.73" y1="86.11" x2="31.87" y2="86.11"/><line class="cls-5" x1="27.73" y1="84.12" x2="31.87" y2="84.12"/><line class="cls-5" x1="33.8" y1="90.09" x2="37.95" y2="90.09"/><line class="cls-5" x1="33.8" y1="88.1" x2="37.95" y2="88.1"/><line class="cls-5" x1="33.8" y1="86.11" x2="37.95" y2="86.11"/><line class="cls-5" x1="33.8" y1="84.12" x2="37.95" y2="84.12"/></svg>